<svg xmlns="http://www.w3.org/2000/svg" xmlns:xlink="http://www.w3.org/1999/xlink" version="1.1" id="Capa_1" x="0px" y="0px" viewBox="0 0 512 512" style="enable-background:new 0 0 512 512;" xml:space="preserve" width="512px" height="512px">
<g>
	<g>
		<path d="M379.237,180.014h-1.526L356.6,129.633v-0.252c1.056-0.01,2.117-0.023,3.172-0.07c4.138-0.183,7.345-3.685,7.163-7.823    c-0.183-4.137-3.668-7.319-7.823-7.163c-0.836,0.038-1.675,0.047-2.512,0.056v-2.88c0-4.143-3.357-7.5-7.5-7.5s-7.5,3.357-7.5,7.5    v1.509c-30.416-6.063-30.467-22.988-52.713-22.988h-1.327c-2.362-6.826-7.794-12.227-14.641-14.548v-4.773    c0-4.143-3.357-7.5-7.5-7.5s-7.5,3.357-7.5,7.5v4.773c-6.847,2.321-12.281,7.725-14.643,14.554    c-0.646,0.106-12.343-1.115-22.844,7.813c-6.68,5.68-16.875,12.179-30.646,15.056v-1.39c0-4.143-3.357-7.5-7.5-7.5    s-7.5,3.357-7.5,7.5v2.906c-4.054,0.101-7.311,3.412-7.311,7.49s3.256,7.389,7.311,7.49v0.244l-21.109,50.377    c-0.599,0.097-5.041-0.684-8.581,3.009c-3.601,3.754-2.919,8.246-2.005,14.188c1.345,7.938,6.394,15.119,14.534,19.048    c3.738,1.783,6.615,6.14,13.738,6.14h21.846c5.198,0,8.882-2.802,9.567-3.363c2.063-1.691,2.454-1.894,4.336-2.858    c10.596-5.062,14.565-14.415,15.066-25.995c0.138-5.929-4.483-10.168-9.756-10.168h-1.527l-21.109-50.377v-1.504    c19.474-3.383,33.214-12.787,40.362-18.865c5.741-4.881,12.596-4.173,13.036-4.24c2.311,6.955,7.796,12.471,14.734,14.822v77.931    c-14.978,1.006-24.755,16.358-19.24,30.372c-9.352,2.649-16.226,11.257-16.226,21.445c0,12.292,10.001,22.292,22.292,22.292    h41.988c12.292,0,22.291-10.001,22.291-22.292c0-10.398-7.156-19.153-16.802-21.605c5.383-13.995-4.405-29.211-19.303-30.212    v-77.931c6.938-2.352,12.426-7.87,14.736-14.828c0.531,0.082,7.119-0.707,12.939,4.24c7.227,6.145,21.192,15.689,41.006,18.976    v1.396l-21.111,50.381c-0.599,0.097-5.039-0.684-8.58,3.009c-3.095,3.227-2.718,7.256-2.701,7.156    c0,12.945,6.091,21.667,15.23,26.079c3.857,1.84,6.647,6.14,13.738,6.14h21.847c6.804-0.003,9.143-3.754,13.922-6.232    c10.67-5.106,14.607-14.438,15.052-25.996C389.222,184.663,384.808,180.014,379.237,180.014z M171.281,207.412l-0.001-0.002    c0.007,0,0.219,0.188,0.219,0.188C171.443,207.551,171.337,207.458,171.281,207.412z M193.258,207.436    c-0.038,0.03-0.055-0.035-0.052-0.038c-32.097-0.073-16.366,1.322-29.233-4.733c-3.132-1.479-5.368-4.322-6.036-7.648h48.695    C205.195,202.167,199.616,201.995,193.258,207.436z M194.63,180.014h-24.69l12.346-29.462L194.63,180.014z M294.022,249.597    c0,4.021-3.271,7.291-7.29,7.291h-41.987c-4.021,0-7.291-3.271-7.291-7.291s3.271-7.29,7.291-7.29c15.594,0,28.018,0,41.987,0    C290.751,242.307,294.022,245.578,294.022,249.597z M278.702,220.014c0,4.021-3.271,7.291-7.29,7.291h-11.987    c-4.02,0-7.29-3.271-7.29-7.291s3.271-7.29,7.29-7.29h11.987C275.431,212.724,278.702,215.994,278.702,220.014z M265.417,106.086    c-4.646,0-8.427-3.779-8.427-8.427c0-4.646,3.779-8.426,8.427-8.426s8.427,3.779,8.427,8.426    C273.844,102.307,270.064,106.086,265.417,106.086z M349.099,150.547l12.348,29.467h-24.695L349.099,150.547z M338.098,207.412    c0.286,0.245,0.188,0.161,0.209,0.18C338.308,207.592,338.183,207.486,338.098,207.412z M360.073,207.436    c-0.019,0.022-0.055-0.035-0.055-0.035c-28.304-0.069-18.799,1.246-27.062-3.604c-3.633-1.972-7.156-3.563-8.205-8.782h48.696    C372,202.228,366.144,202.227,360.073,207.436z" fill="#567c56"/>
	</g>
</g>
<g>
	<g>
		<path d="M336.055,303.81H194.78c-4.143,0-7.5,3.357-7.5,7.5s3.357,7.5,7.5,7.5h141.277c4.143,0,7.5-3.357,7.5-7.5    S340.199,303.81,336.055,303.81z" fill="#567c56"/>
	</g>
</g>
<g>
	<g>
		<path d="M336.055,335.31H194.78c-4.143,0-7.5,3.357-7.5,7.5s3.357,7.5,7.5,7.5h141.277c4.143,0,7.5-3.357,7.5-7.5    S340.199,335.31,336.055,335.31z" fill="#567c56"/>
	</g>
</g>
<g>
	<g>
		<path d="M336.055,366.811H194.78c-4.143,0-7.5,3.357-7.5,7.5s3.357,7.5,7.5,7.5h141.277c4.143,0,7.5-3.357,7.5-7.5    S340.199,366.811,336.055,366.811z" fill="#567c56"/>
	</g>
</g>
<g>
	<g>
		<path d="M465.466,364.311c4.143,0,7.5-3.357,7.5-7.5V25.059C472.967,11.241,461.725,0,447.908,0C431.661,0,98.246,0,81.848,0    C58.074,0,39.033,19.685,39.033,42.43c0,25.45,0.001,402.522,0.001,427.059c0,22.863,19.64,42.512,42.814,42.512h238.549    c4.143,0,7.5-3.357,7.5-7.5c0-4.143-3.357-7.5-7.5-7.5c-0.102,0-238.387-0.203-238.549-0.203    c-21.821,0-36.38-24.986-22.108-43.649c4.818-6.303,12.235-10.518,20.704-10.969c1.224-0.062,29.586-0.036,29.69-0.036v31.112    c0,8.271,9.149,13.309,16.142,8.87l17.074-10.847l16.818,10.685c7.115,4.511,16.397-0.619,16.397-9.013v-30.809h243.544v54.856    H355.4c-4.143,0-7.5,3.357-7.5,7.5s3.357,7.5,7.5,7.5c10.71,0,79.128,0,90.855,0c14.729,0,26.712-11.983,26.712-26.712    c0-11.398,0-85.349,0-93.476c0-4.143-3.357-7.5-7.5-7.5s-7.5,3.357-7.5,7.5v23.653c0,5.23-3.458,9.669-8.207,11.15    c-2.829,0.882-351.238,0.533-357.991,0.526V93.718c0-4.143-3.357-7.5-7.5-7.5s-7.5,3.357-7.5,7.5v333.728    c-8.582,1.039-16.473,4.674-22.731,10.05C54.925,33.5,51.093,39.919,58.089,28.425c4.09-6.699,10.906-11.511,18.678-12.945v43.236    c0,4.143,3.357,7.5,7.5,7.5s7.5-3.357,7.5-7.5V15.001h356.141c5.545,0,10.058,4.512,10.058,10.058v331.752    C457.966,360.954,461.323,364.311,465.466,364.311z M435.108,442.143L435.108,442.143c7.815-0.534,14.458,1.437,22.856-2.693    v45.839c0,6.457-5.253,11.711-11.711,11.711h-11.146V442.143z M125.134,442.143h36.43v22.936    c-9.889-5.754-12.32-9.229-18.214-9.229c-5.903,0-8.349,3.485-18.216,9.228V442.143z" fill="#567c56"/>
	</g>
</g>
<g>
</g>
<g>
</g>
<g>
</g>
<g>
</g>
<g>
</g>
<g>
</g>
<g>
</g>
<g>
</g>
<g>
</g>
<g>
</g>
<g>
</g>
<g>
</g>
<g>
</g>
<g>
</g>
<g>
</g>
</svg>
